<svg width="23" height="27" viewBox="0 0 23 27" fill="none" xmlns="http://www.w3.org/2000/svg">
<path d="M11.4941 17.5664C12.0918 17.5664 12.584 17.0742 12.584 16.5V4.69922L12.4902 2.95312L13.2168 3.80859L14.8691 5.56641C15.0566 5.77734 15.3262 5.88281 15.5957 5.88281C16.123 5.88281 16.5566 5.49609 16.5566 4.94531C16.5566 4.66406 16.4512 4.45312 16.252 4.25391L12.3145 0.46875C12.0449 0.1875 11.7871 0.09375 11.4941 0.09375C11.2129 0.09375 10.9551 0.1875 10.6855 0.46875L6.74805 4.25391C6.54883 4.45312 6.43164 4.66406 6.43164 4.94531C6.43164 5.49609 6.86523 5.88281 7.39258 5.88281C7.66211 5.88281 7.94336 5.77734 8.13086 5.56641L9.77148 3.80859L10.5098 2.95312L10.416 4.69922V16.5C10.416 17.0742 10.9082 17.5664 11.4941 17.5664ZM4.75586 26.9062H18.2441C20.7754 26.9062 22.0879 25.6055 22.0879 23.1094V11.5664C22.0879 9.07031 20.7754 7.76953 18.2441 7.76953H15.0684V10.0664H18.1035C19.1816 10.0664 19.791 10.6289 19.791 11.7656V22.9102C19.791 24.0469 19.1816 24.6094 18.1035 24.6094H4.89648C3.80664 24.6094 3.20898 24.0469 3.20898 22.9102V11.7656C3.20898 10.6289 3.80664 10.0664 4.89648 10.0664H7.95508V7.76953H4.75586C2.22461 7.76953 0.912109 9.07031 0.912109 11.5664V23.1094C0.912109 25.6055 2.22461 26.9062 4.75586 26.9062Z" fill="#007AFF"/>
</svg>
