<svg width="29" height="24" viewBox="0 0 29 24" fill="none" xmlns="http://www.w3.org/2000/svg">
<path d="M28.9 13.2V18C28.9 18.3183 28.7736 18.6235 28.5485 18.8485C28.3235 19.0736 28.0183 19.2 27.7 19.2C27.3817 19.2 27.0765 19.0736 26.8515 18.8485C26.6264 18.6235 26.5 18.3183 26.5 18C26.5 18 26.644 16.8 24.1 16.8H21.7V22.8C21.7 23.1183 21.5736 23.4235 21.3485 23.6485C21.1235 23.8736 20.8183 24 20.5 24H1.30001C0.981746 24 0.676522 23.8736 0.451478 23.6485C0.226435 23.4235 0.100006 23.1183 0.100006 22.8V13.2C0.100006 12.8817 0.226435 12.5765 0.451478 12.3515C0.676522 12.1264 0.981746 12 1.30001 12H20.5C20.8183 12 21.1235 12.1264 21.3485 12.3515C21.5736 12.5765 21.7 12.8817 21.7 13.2V14.4H24.1C26.644 14.4 26.5 13.2 26.5 13.2C26.5 12.8817 26.6264 12.5765 26.8515 12.3515C27.0765 12.1264 27.3817 12 27.7 12C28.0183 12 28.3235 12.1264 28.5485 12.3515C28.7736 12.5765 28.9 12.8817 28.9 13.2ZM4.90001 2.4C3.62697 2.4 2.40607 2.90571 1.50589 3.80589C0.605719 4.70606 0.100006 5.92696 0.100006 7.2C0.100006 8.47304 0.605719 9.69394 1.50589 10.5941C2.40607 11.4943 3.62697 12 4.90001 12C6.17305 12 7.39394 11.4943 8.29412 10.5941C9.19429 9.69394 9.70001 8.47304 9.70001 7.2C9.70001 5.92696 9.19429 4.70606 8.29412 3.80589C7.39394 2.90571 6.17305 2.4 4.90001 2.4ZM4.90001 9.6C4.26349 9.6 3.65304 9.34714 3.20295 8.89706C2.75286 8.44697 2.50001 7.83652 2.50001 7.2C2.50001 6.56348 2.75286 5.95303 3.20295 5.50294C3.65304 5.05286 4.26349 4.8 4.90001 4.8C5.53653 4.8 6.14697 5.05286 6.59706 5.50294C7.04715 5.95303 7.30001 6.56348 7.30001 7.2C7.30001 7.83652 7.04715 8.44697 6.59706 8.89706C6.14697 9.34714 5.53653 9.6 4.90001 9.6ZM15.7 0C14.1087 0 12.5826 0.632141 11.4574 1.75736C10.3321 2.88258 9.70001 4.4087 9.70001 6C9.70001 7.5913 10.3321 9.11742 11.4574 10.2426C12.5826 11.3679 14.1087 12 15.7 12C17.2913 12 18.8174 11.3679 19.9426 10.2426C21.0679 9.11742 21.7 7.5913 21.7 6C21.7 4.4087 21.0679 2.88258 19.9426 1.75736C18.8174 0.632141 17.2913 0 15.7 0ZM15.7 9.6C14.7452 9.6 13.8296 9.22072 13.1544 8.54559C12.4793 7.87045 12.1 6.95478 12.1 6C12.1 5.04522 12.4793 4.12955 13.1544 3.45442C13.8296 2.77928 14.7452 2.4 15.7 2.4C16.6548 2.4 17.5705 2.77928 18.2456 3.45442C18.9207 4.12955 19.3 5.04522 19.3 6C19.3 6.95478 18.9207 7.87045 18.2456 8.54559C17.5705 9.22072 16.6548 9.6 15.7 9.6Z" fill="white"/>
</svg>
