<svg width="15" height="4" viewBox="0 0 15 4" fill="none" xmlns="http://www.w3.org/2000/svg">
<path d="M1.76953 3.52734C2.74219 3.52734 3.53906 2.74219 3.53906 1.75781C3.53906 0.785156 2.73047 0 1.76953 0C0.796875 0 0 0.785156 0 1.75781C0 2.74219 0.796875 3.52734 1.76953 3.52734ZM7.21875 3.52734C8.19141 3.52734 8.97656 2.74219 8.97656 1.75781C8.97656 0.785156 8.19141 0 7.21875 0C6.24609 0 5.44922 0.785156 5.44922 1.75781C5.44922 2.74219 6.24609 3.52734 7.21875 3.52734ZM12.6562 3.52734C13.6406 3.52734 14.4258 2.74219 14.4258 1.75781C14.4258 0.785156 13.6406 0 12.6562 0C11.6836 0 10.8984 0.785156 10.8984 1.75781C10.8984 2.74219 11.6836 3.52734 12.6562 3.52734Z" fill="white"/>
</svg>
