<svg width="25" height="25" viewBox="0 0 25 25" fill="none" xmlns="http://www.w3.org/2000/svg">
<path d="M24.3407 4.19389C25.0606 3.47407 25.0753 2.19603 24.3261 1.44683C23.5622 0.697638 22.2841 0.712328 21.579 1.41745L12.8825 10.114L4.2006 1.43214C3.46609 0.697637 2.20274 0.697637 1.45355 1.44683C0.704353 2.21072 0.704353 3.45938 1.43886 4.19388L10.1207 12.8757L1.43886 21.5723C0.704351 22.3068 0.689661 23.5701 1.45355 24.3193C2.20274 25.0685 3.46609 25.0685 4.2006 24.334L12.8825 15.6522L21.579 24.334C22.2841 25.0538 23.5769 25.0832 24.3261 24.3193C25.0752 23.5701 25.0606 22.2774 24.3407 21.5723L15.6589 12.8757L24.3407 4.19389Z" fill="#FF3B30"/>
</svg>
